# xmcd
#
# Track frame offsets: 
#        150
#        15714
#        34191
#        45354
#        59989
#        80299
#        95428
#        122974
#
# Disc length: 4440 seconds
#
# Revision: 0
# Processed by: cddbd v1.5PL3 Copyright (c) Steve Scherf et al.
# Submitted via: ExactAudioCopy v0.90b4
#
DISCID=65115608
DTITLE=Slim Dusty - Columbia Lane - The Last Sessions
DYEAR=2004
DGENRE=Country
TTITLE0=Blue Hills (In The Distance)
TTITLE1=Rolling Down The Hill
TTITLE2=Nature's Gentleman
TTITLE3=Answer To Billy
TTITLE4=Long Distance Driving
TTITLE5=Gonna Take My Dog For A Run
TTITLE6=Get Along
TTITLE7=Data
EXTD=
EXTT0=
EXTT1=
EXTT2=
EXTT3=
EXTT4=
EXTT5=
EXTT6=
EXTT7=
PLAYORDER=
